<?xml version="1.0" encoding="UTF-8" standalone="no"?>
<!DOCTYPE svg PUBLIC "-//W3C//DTD SVG 1.1//EN"
 "http://www.w3.org/Graphics/SVG/1.1/DTD/svg11.dtd">
<!-- Generated by graphviz version 9.0.0 (20230911.1827)
 -->
<!-- Title: G Pages: 1 -->
<svg width="2107pt" height="1411pt"
 viewBox="0.00 0.00 2107.45 1410.55" xmlns="http://www.w3.org/2000/svg" xmlns:xlink="http://www.w3.org/1999/xlink">
<g id="graph0" class="graph" transform="scale(1 1) rotate(0) translate(21.6 1388.95)">
<title>G</title>
<polygon fill="#111111" stroke="none" points="-21.6,21.6 -21.6,-1388.95 2085.85,-1388.95 2085.85,21.6 -21.6,21.6"/>
<!-- authorizations.js -->
<g id="node1" class="node">
<title>authorizations.js</title>
<path fill="none" stroke="#c6c5fe" d="M528.46,-180.35C528.46,-180.35 430.79,-180.35 430.79,-180.35 426.83,-180.35 422.88,-176.39 422.88,-172.43 422.88,-172.43 422.88,-164.51 422.88,-164.51 422.88,-160.56 426.83,-156.6 430.79,-156.6 430.79,-156.6 528.46,-156.6 528.46,-156.6 532.42,-156.6 536.38,-160.56 536.38,-164.51 536.38,-164.51 536.38,-172.43 536.38,-172.43 536.38,-176.39 532.42,-180.35 528.46,-180.35"/>
<text text-anchor="middle" x="479.62" y="-163.05" font-family="Arial" font-size="14.00" fill="#c6c5fe">authorizations.js</text>
</g>
<!-- services/users/js/users.authorize.js -->
<g id="node2" class="node">
<title>services/users/js/users.authorize.js</title>
<path fill="none" stroke="#ff6c60" d="M871.46,-153.35C871.46,-153.35 662.04,-153.35 662.04,-153.35 658.08,-153.35 654.12,-149.39 654.12,-145.43 654.12,-145.43 654.12,-137.51 654.12,-137.51 654.12,-133.56 658.08,-129.6 662.04,-129.6 662.04,-129.6 871.46,-129.6 871.46,-129.6 875.42,-129.6 879.38,-133.56 879.38,-137.51 879.38,-137.51 879.38,-145.43 879.38,-145.43 879.38,-149.39 875.42,-153.35 871.46,-153.35"/>
<text text-anchor="middle" x="766.75" y="-136.05" font-family="Arial" font-size="14.00" fill="#ff6c60">services/users/js/users.authorize.js</text>
</g>
<!-- authorizations.js&#45;&gt;services/users/js/users.authorize.js -->
<g id="edge1" class="edge">
<title>authorizations.js&#45;&gt;services/users/js/users.authorize.js</title>
<path fill="none" stroke="#757575" d="M536.62,-163.17C566.89,-160.3 605.55,-156.64 642.46,-153.15"/>
<polygon fill="#757575" stroke="#757575" points="642.71,-156.64 652.34,-152.21 642.05,-149.67 642.71,-156.64"/>
</g>
<!-- services/vertex/index.js -->
<g id="node3" class="node">
<title>services/vertex/index.js</title>
<path fill="none" stroke="#c6c5fe" d="M836.58,-294.35C836.58,-294.35 696.92,-294.35 696.92,-294.35 692.96,-294.35 689,-290.39 689,-286.43 689,-286.43 689,-278.51 689,-278.51 689,-274.56 692.96,-270.6 696.92,-270.6 696.92,-270.6 836.58,-270.6 836.58,-270.6 840.54,-270.6 844.5,-274.56 844.5,-278.51 844.5,-278.51 844.5,-286.43 844.5,-286.43 844.5,-290.39 840.54,-294.35 836.58,-294.35"/>
<text text-anchor="middle" x="766.75" y="-277.05" font-family="Arial" font-size="14.00" fill="#c6c5fe">services/vertex/index.js</text>
</g>
<!-- authorizations.js&#45;&gt;services/vertex/index.js -->
<g id="edge2" class="edge">
<title>authorizations.js&#45;&gt;services/vertex/index.js</title>
<path fill="none" stroke="#757575" d="M511.41,-180.78C562.95,-201.39 666.73,-242.88 724.52,-265.99"/>
<polygon fill="#757575" stroke="#757575" points="723.1,-269.19 733.69,-269.65 725.7,-262.69 723.1,-269.19"/>
</g>
<!-- services/users/index.js -->
<g id="node8" class="node">
<title>services/users/index.js</title>
<path fill="none" stroke="#ff6c60" d="M1163.08,-153.35C1163.08,-153.35 1027.17,-153.35 1027.17,-153.35 1023.21,-153.35 1019.25,-149.39 1019.25,-145.43 1019.25,-145.43 1019.25,-137.51 1019.25,-137.51 1019.25,-133.56 1023.21,-129.6 1027.17,-129.6 1027.17,-129.6 1163.08,-129.6 1163.08,-129.6 1167.04,-129.6 1171,-133.56 1171,-137.51 1171,-137.51 1171,-145.43 1171,-145.43 1171,-149.39 1167.04,-153.35 1163.08,-153.35"/>
<text text-anchor="middle" x="1095.12" y="-136.05" font-family="Arial" font-size="14.00" fill="#ff6c60">services/users/index.js</text>
</g>
<!-- services/users/js/users.authorize.js&#45;&gt;services/users/index.js -->
<g id="edge26" class="edge">
<title>services/users/js/users.authorize.js&#45;&gt;services/users/index.js</title>
<path fill="none" stroke="#757575" d="M879.61,-135.03C921.43,-134.51 968.26,-134.65 1007.47,-135.43"/>
<polygon fill="#757575" stroke="#757575" points="1007.25,-138.93 1017.33,-135.65 1007.41,-131.93 1007.25,-138.93"/>
</g>
<!-- services/users/js/users.model.js -->
<g id="node22" class="node">
<title>services/users/js/users.model.js</title>
<path fill="none" stroke="#cfffac" d="M2056.33,-142.35C2056.33,-142.35 1864.92,-142.35 1864.92,-142.35 1860.96,-142.35 1857,-138.39 1857,-134.43 1857,-134.43 1857,-126.51 1857,-126.51 1857,-122.56 1860.96,-118.6 1864.92,-118.6 1864.92,-118.6 2056.33,-118.6 2056.33,-118.6 2060.29,-118.6 2064.25,-122.56 2064.25,-126.51 2064.25,-126.51 2064.25,-134.43 2064.25,-134.43 2064.25,-138.39 2060.29,-142.35 2056.33,-142.35"/>
<text text-anchor="middle" x="1960.62" y="-125.05" font-family="Arial" font-size="14.00" fill="#cfffac">services/users/js/users.model.js</text>
</g>
<!-- services/users/js/users.authorize.js&#45;&gt;services/users/js/users.model.js -->
<g id="edge27" class="edge">
<title>services/users/js/users.authorize.js&#45;&gt;services/users/js/users.model.js</title>
<path fill="none" stroke="#757575" d="M863.3,-129.15C887.5,-126.17 913.44,-123.09 937.5,-120.47 1328.54,-77.93 1462.67,93.76 1821,-68.47 1843.09,-78.47 1836.03,-97.3 1857,-109.47 1859.67,-111.02 1862.44,-112.46 1865.28,-113.8"/>
<polygon fill="#757575" stroke="#757575" points="1863.87,-117 1874.45,-117.6 1866.56,-110.53 1863.87,-117"/>
</g>
<!-- services/utils/io.js -->
<g id="node9" class="node">
<title>services/utils/io.js</title>
<path fill="none" stroke="#cfffac" d="M1751.96,-377.35C1751.96,-377.35 1646.79,-377.35 1646.79,-377.35 1642.83,-377.35 1638.88,-373.39 1638.88,-369.43 1638.88,-369.43 1638.88,-361.51 1638.88,-361.51 1638.88,-357.56 1642.83,-353.6 1646.79,-353.6 1646.79,-353.6 1751.96,-353.6 1751.96,-353.6 1755.92,-353.6 1759.88,-357.56 1759.88,-361.51 1759.88,-361.51 1759.88,-369.43 1759.88,-369.43 1759.88,-373.39 1755.92,-377.35 1751.96,-377.35"/>
<text text-anchor="middle" x="1699.38" y="-360.05" font-family="Arial" font-size="14.00" fill="#cfffac">services/utils/io.js</text>
</g>
<!-- services/vertex/index.js&#45;&gt;services/utils/io.js -->
<g id="edge33" class="edge">
<title>services/vertex/index.js&#45;&gt;services/utils/io.js</title>
<path fill="none" stroke="#757575" d="M839.85,-294.84C869.96,-299.65 905.35,-304.87 937.5,-308.47 1205.06,-338.43 1273.38,-329.93 1541.75,-351.47 1569.73,-353.72 1600.5,-356.42 1627.3,-358.85"/>
<polygon fill="#757575" stroke="#757575" points="1626.74,-362.31 1637.02,-359.73 1627.38,-355.34 1626.74,-362.31"/>
</g>
<!-- services/vertex/index.js&#45;&gt;services/users/js/users.model.js -->
<g id="edge32" class="edge">
<title>services/vertex/index.js&#45;&gt;services/users/js/users.model.js</title>
<path fill="none" stroke="#757575" d="M796.25,-270.18C829.48,-256.46 886.37,-234.82 937.5,-224.47 1323.31,-146.4 1431.7,-220.7 1821,-162.47 1848.33,-158.39 1878.24,-151.76 1903.27,-145.6"/>
<polygon fill="#757575" stroke="#757575" points="1904.07,-149 1912.92,-143.17 1902.37,-142.21 1904.07,-149"/>
</g>
<!-- services/vertex/vertex.model.js -->
<g id="node47" class="node">
<title>services/vertex/vertex.model.js</title>
<path fill="none" stroke="#cfffac" d="M1187.83,-299.35C1187.83,-299.35 1002.42,-299.35 1002.42,-299.35 998.46,-299.35 994.5,-295.39 994.5,-291.43 994.5,-291.43 994.5,-283.51 994.5,-283.51 994.5,-279.56 998.46,-275.6 1002.42,-275.6 1002.42,-275.6 1187.83,-275.6 1187.83,-275.6 1191.79,-275.6 1195.75,-279.56 1195.75,-283.51 1195.75,-283.51 1195.75,-291.43 1195.75,-291.43 1195.75,-295.39 1191.79,-299.35 1187.83,-299.35"/>
<text text-anchor="middle" x="1095.12" y="-282.05" font-family="Arial" font-size="14.00" fill="#cfffac">services/vertex/vertex.model.js</text>
</g>
<!-- services/vertex/index.js&#45;&gt;services/vertex/vertex.model.js -->
<g id="edge34" class="edge">
<title>services/vertex/index.js&#45;&gt;services/vertex/vertex.model.js</title>
<path fill="none" stroke="#757575" d="M844.68,-283.65C885.86,-284.28 937.31,-285.07 982.78,-285.77"/>
<polygon fill="#757575" stroke="#757575" points="982.63,-289.27 992.69,-285.92 982.74,-282.27 982.63,-289.27"/>
</g>
<!-- services/vertex/vexlist.model.js -->
<g id="node48" class="node">
<title>services/vertex/vexlist.model.js</title>
<path fill="none" stroke="#cfffac" d="M1188.21,-257.35C1188.21,-257.35 1002.04,-257.35 1002.04,-257.35 998.08,-257.35 994.12,-253.39 994.12,-249.43 994.12,-249.43 994.12,-241.51 994.12,-241.51 994.12,-237.56 998.08,-233.6 1002.04,-233.6 1002.04,-233.6 1188.21,-233.6 1188.21,-233.6 1192.17,-233.6 1196.12,-237.56 1196.12,-241.51 1196.12,-241.51 1196.12,-249.43 1196.12,-249.43 1196.12,-253.39 1192.17,-257.35 1188.21,-257.35"/>
<text text-anchor="middle" x="1095.12" y="-240.05" font-family="Arial" font-size="14.00" fill="#cfffac">services/vertex/vexlist.model.js</text>
</g>
<!-- services/vertex/index.js&#45;&gt;services/vertex/vexlist.model.js -->
<g id="edge35" class="edge">
<title>services/vertex/index.js&#45;&gt;services/vertex/vexlist.model.js</title>
<path fill="none" stroke="#757575" d="M844.68,-273.75C885.77,-269.09 937.1,-263.27 982.49,-258.13"/>
<polygon fill="#757575" stroke="#757575" points="982.85,-261.61 992.39,-257.01 982.06,-254.65 982.85,-261.61"/>
</g>
<!-- server.js -->
<g id="node4" class="node">
<title>server.js</title>
<path fill="none" stroke="#c6c5fe" d="M188.83,-317.35C188.83,-317.35 138.42,-317.35 138.42,-317.35 134.46,-317.35 130.5,-313.39 130.5,-309.43 130.5,-309.43 130.5,-301.51 130.5,-301.51 130.5,-297.56 134.46,-293.6 138.42,-293.6 138.42,-293.6 188.83,-293.6 188.83,-293.6 192.79,-293.6 196.75,-297.56 196.75,-301.51 196.75,-301.51 196.75,-309.43 196.75,-309.43 196.75,-313.39 192.79,-317.35 188.83,-317.35"/>
<text text-anchor="middle" x="163.62" y="-300.05" font-family="Arial" font-size="14.00" fill="#c6c5fe">server.js</text>
</g>
<!-- server.js&#45;&gt;authorizations.js -->
<g id="edge3" class="edge">
<title>server.js&#45;&gt;authorizations.js</title>
<path fill="none" stroke="#757575" d="M187.45,-293.2C223.96,-273.83 298.05,-235.58 363.25,-208.47 384.32,-199.71 408.08,-191.25 428.53,-184.38"/>
<polygon fill="#757575" stroke="#757575" points="429.37,-187.78 437.76,-181.31 427.17,-181.14 429.37,-187.78"/>
</g>
<!-- server.js&#45;&gt;services/vertex/index.js -->
<g id="edge9" class="edge">
<title>server.js&#45;&gt;services/vertex/index.js</title>
<path fill="none" stroke="#757575" d="M196.94,-304.24C286.72,-300.8 541.48,-291.05 677.54,-285.85"/>
<polygon fill="#757575" stroke="#757575" points="677.36,-289.36 687.22,-285.48 677.09,-282.36 677.36,-289.36"/>
</g>
<!-- services/database/index.js -->
<g id="node5" class="node">
<title>services/database/index.js</title>
<path fill="none" stroke="#cfffac" d="M558.83,-277.35C558.83,-277.35 400.42,-277.35 400.42,-277.35 396.46,-277.35 392.5,-273.39 392.5,-269.43 392.5,-269.43 392.5,-261.51 392.5,-261.51 392.5,-257.56 396.46,-253.6 400.42,-253.6 400.42,-253.6 558.83,-253.6 558.83,-253.6 562.79,-253.6 566.75,-257.56 566.75,-261.51 566.75,-261.51 566.75,-269.43 566.75,-269.43 566.75,-273.39 562.79,-277.35 558.83,-277.35"/>
<text text-anchor="middle" x="479.62" y="-260.05" font-family="Arial" font-size="14.00" fill="#cfffac">services/database/index.js</text>
</g>
<!-- server.js&#45;&gt;services/database/index.js -->
<g id="edge4" class="edge">
<title>server.js&#45;&gt;services/database/index.js</title>
<path fill="none" stroke="#757575" d="M197.05,-301.34C240.06,-295.86 317.9,-285.95 380.85,-277.93"/>
<polygon fill="#757575" stroke="#757575" points="381.04,-281.43 390.51,-276.7 380.15,-274.49 381.04,-281.43"/>
</g>
<!-- services/geodata/index.js -->
<g id="node6" class="node">
<title>services/geodata/index.js</title>
<path fill="none" stroke="#c6c5fe" d="M555.46,-396.35C555.46,-396.35 403.79,-396.35 403.79,-396.35 399.83,-396.35 395.88,-392.39 395.88,-388.43 395.88,-388.43 395.88,-380.51 395.88,-380.51 395.88,-376.56 399.83,-372.6 403.79,-372.6 403.79,-372.6 555.46,-372.6 555.46,-372.6 559.42,-372.6 563.38,-376.56 563.38,-380.51 563.38,-380.51 563.38,-388.43 563.38,-388.43 563.38,-392.39 559.42,-396.35 555.46,-396.35"/>
<text text-anchor="middle" x="479.62" y="-379.05" font-family="Arial" font-size="14.00" fill="#c6c5fe">services/geodata/index.js</text>
</g>
<!-- server.js&#45;&gt;services/geodata/index.js -->
<g id="edge5" class="edge">
<title>server.js&#45;&gt;services/geodata/index.js</title>
<path fill="none" stroke="#757575" d="M197.01,-304.15C230.97,-304 285.15,-307.29 327.25,-326.47 346.73,-335.35 344.2,-348.7 363.25,-358.47 371.09,-362.49 379.53,-365.9 388.17,-368.78"/>
<polygon fill="#757575" stroke="#757575" points="387.14,-372.12 397.73,-371.71 389.2,-365.43 387.14,-372.12"/>
</g>
<!-- services/reactions/index.js -->
<g id="node7" class="node">
<title>services/reactions/index.js</title>
<path fill="none" stroke="#c6c5fe" d="M558.46,-474.35C558.46,-474.35 400.79,-474.35 400.79,-474.35 396.83,-474.35 392.88,-470.39 392.88,-466.43 392.88,-466.43 392.88,-458.51 392.88,-458.51 392.88,-454.56 396.83,-450.6 400.79,-450.6 400.79,-450.6 558.46,-450.6 558.46,-450.6 562.42,-450.6 566.38,-454.56 566.38,-458.51 566.38,-458.51 566.38,-466.43 566.38,-466.43 566.38,-470.39 562.42,-474.35 558.46,-474.35"/>
<text text-anchor="middle" x="479.62" y="-457.05" font-family="Arial" font-size="14.00" fill="#c6c5fe">services/reactions/index.js</text>
</g>
<!-- server.js&#45;&gt;services/reactions/index.js -->
<g id="edge6" class="edge">
<title>server.js&#45;&gt;services/reactions/index.js</title>
<path fill="none" stroke="#757575" d="M197.01,-301C232.48,-297.91 289.34,-298.49 327.25,-326.47 358.29,-349.39 336.4,-377.77 363.25,-405.47 380.82,-423.6 405.36,-436.83 427.3,-445.96"/>
<polygon fill="#757575" stroke="#757575" points="425.82,-449.14 436.4,-449.55 428.39,-442.63 425.82,-449.14"/>
</g>
<!-- server.js&#45;&gt;services/users/index.js -->
<g id="edge7" class="edge">
<title>server.js&#45;&gt;services/users/index.js</title>
<path fill="none" stroke="#757575" d="M197.23,-293.71C236.24,-280.06 303.74,-257.72 363.25,-244.47 484.61,-217.46 841.9,-172.22 1007.74,-151.91"/>
<polygon fill="#757575" stroke="#757575" points="1007.86,-155.42 1017.36,-150.73 1007.01,-148.47 1007.86,-155.42"/>
</g>
<!-- server.js&#45;&gt;services/utils/io.js -->
<g id="edge8" class="edge">
<title>server.js&#45;&gt;services/utils/io.js</title>
<path fill="none" stroke="#757575" d="M196.81,-306.87C330.67,-312.66 856.41,-335.24 1288.75,-351.47 1407.48,-355.93 1545.58,-360.53 1627.28,-363.19"/>
<polygon fill="#757575" stroke="#757575" points="1627.05,-366.68 1637.16,-363.51 1627.28,-359.69 1627.05,-366.68"/>
</g>
<!-- services/geodata/server/geoJsonFeature.model.js -->
<g id="node10" class="node">
<title>services/geodata/server/geoJsonFeature.model.js</title>
<path fill="none" stroke="#cfffac" d="M1244.83,-427.35C1244.83,-427.35 945.42,-427.35 945.42,-427.35 941.46,-427.35 937.5,-423.39 937.5,-419.43 937.5,-419.43 937.5,-411.51 937.5,-411.51 937.5,-407.56 941.46,-403.6 945.42,-403.6 945.42,-403.6 1244.83,-403.6 1244.83,-403.6 1248.79,-403.6 1252.75,-407.56 1252.75,-411.51 1252.75,-411.51 1252.75,-419.43 1252.75,-419.43 1252.75,-423.39 1248.79,-427.35 1244.83,-427.35"/>
<text text-anchor="middle" x="1095.12" y="-410.05" font-family="Arial" font-size="14.00" fill="#cfffac">services/geodata/server/geoJsonFeature.model.js</text>
</g>
<!-- services/geodata/index.js&#45;&gt;services/geodata/server/geoJsonFeature.model.js -->
<g id="edge10" class="edge">
<title>services/geodata/index.js&#45;&gt;services/geodata/server/geoJsonFeature.model.js</title>
<path fill="none" stroke="#757575" d="M557.06,-396.84C580.99,-400.23 607.54,-403.52 632,-405.47 729.13,-413.24 838.09,-415.88 925.81,-416.52"/>
<polygon fill="#757575" stroke="#757575" points="925.68,-420.02 935.7,-416.59 925.72,-413.02 925.68,-420.02"/>
</g>
<!-- services/geodata/server/importGeoJson.js -->
<g id="node11" class="node">
<title>services/geodata/server/importGeoJson.js</title>
<path fill="none" stroke="#c6c5fe" d="M893.58,-396.35C893.58,-396.35 639.92,-396.35 639.92,-396.35 635.96,-396.35 632,-392.39 632,-388.43 632,-388.43 632,-380.51 632,-380.51 632,-376.56 635.96,-372.6 639.92,-372.6 639.92,-372.6 893.58,-372.6 893.58,-372.6 897.54,-372.6 901.5,-376.56 901.5,-380.51 901.5,-380.51 901.5,-388.43 901.5,-388.43 901.5,-392.39 897.54,-396.35 893.58,-396.35"/>
<text text-anchor="middle" x="766.75" y="-379.05" font-family="Arial" font-size="14.00" fill="#c6c5fe">services/geodata/server/importGeoJson.js</text>
</g>
<!-- services/geodata/index.js&#45;&gt;services/geodata/server/importGeoJson.js -->
<g id="edge11" class="edge">
<title>services/geodata/index.js&#45;&gt;services/geodata/server/importGeoJson.js</title>
<path fill="none" stroke="#757575" d="M563.86,-384.47C581.66,-384.47 600.95,-384.47 620.32,-384.47"/>
<polygon fill="#757575" stroke="#757575" points="620.2,-387.97 630.2,-384.47 620.2,-380.97 620.2,-387.97"/>
</g>
<!-- services/reactions/server/reaction.model.js -->
<g id="node16" class="node">
<title>services/reactions/server/reaction.model.js</title>
<path fill="none" stroke="#c6c5fe" d="M1223.08,-474.35C1223.08,-474.35 967.17,-474.35 967.17,-474.35 963.21,-474.35 959.25,-470.39 959.25,-466.43 959.25,-466.43 959.25,-458.51 959.25,-458.51 959.25,-454.56 963.21,-450.6 967.17,-450.6 967.17,-450.6 1223.08,-450.6 1223.08,-450.6 1227.04,-450.6 1231,-454.56 1231,-458.51 1231,-458.51 1231,-466.43 1231,-466.43 1231,-470.39 1227.04,-474.35 1223.08,-474.35"/>
<text text-anchor="middle" x="1095.12" y="-457.05" font-family="Arial" font-size="14.00" fill="#c6c5fe">services/reactions/server/reaction.model.js</text>
</g>
<!-- services/reactions/index.js&#45;&gt;services/reactions/server/reaction.model.js -->
<g id="edge16" class="edge">
<title>services/reactions/index.js&#45;&gt;services/reactions/server/reaction.model.js</title>
<path fill="none" stroke="#757575" d="M566.58,-462.47C665.21,-462.47 828.64,-462.47 947.5,-462.47"/>
<polygon fill="#757575" stroke="#757575" points="947.35,-465.97 957.35,-462.47 947.35,-458.97 947.35,-465.97"/>
</g>
<!-- services/reactions/server/reaction.router.js -->
<g id="node17" class="node">
<title>services/reactions/server/reaction.router.js</title>
<path fill="none" stroke="#c6c5fe" d="M893.21,-514.35C893.21,-514.35 640.29,-514.35 640.29,-514.35 636.33,-514.35 632.38,-510.39 632.38,-506.43 632.38,-506.43 632.38,-498.51 632.38,-498.51 632.38,-494.56 636.33,-490.6 640.29,-490.6 640.29,-490.6 893.21,-490.6 893.21,-490.6 897.17,-490.6 901.12,-494.56 901.12,-498.51 901.12,-498.51 901.12,-506.43 901.12,-506.43 901.12,-510.39 897.17,-514.35 893.21,-514.35"/>
<text text-anchor="middle" x="766.75" y="-497.05" font-family="Arial" font-size="14.00" fill="#c6c5fe">services/reactions/server/reaction.router.js</text>
</g>
<!-- services/reactions/index.js&#45;&gt;services/reactions/server/reaction.router.js -->
<g id="edge17" class="edge">
<title>services/reactions/index.js&#45;&gt;services/reactions/server/reaction.router.js</title>
<path fill="none" stroke="#757575" d="M566.56,-474.53C598.09,-478.95 634.04,-484 666.64,-488.57"/>
<polygon fill="#757575" stroke="#757575" points="666.13,-492.03 676.52,-489.96 667.1,-485.1 666.13,-492.03"/>
</g>
<!-- services/users/index.js&#45;&gt;services/users/js/users.authorize.js -->
<g id="edge21" class="edge">
<title>services/users/index.js&#45;&gt;services/users/js/users.authorize.js</title>
<path fill="none" stroke="#757575" d="M1018.84,-147.26C980.94,-148.18 934.02,-148.44 891.03,-148.04"/>
<polygon fill="#757575" stroke="#757575" points="891.16,-144.54 881.13,-147.93 891.09,-151.54 891.16,-144.54"/>
</g>
<!-- services/users/js/users.authenticate.js -->
<g id="node21" class="node">
<title>services/users/js/users.authenticate.js</title>
<path fill="none" stroke="#c6c5fe" d="M1813.08,-101.35C1813.08,-101.35 1585.67,-101.35 1585.67,-101.35 1581.71,-101.35 1577.75,-97.39 1577.75,-93.43 1577.75,-93.43 1577.75,-85.51 1577.75,-85.51 1577.75,-81.56 1581.71,-77.6 1585.67,-77.6 1585.67,-77.6 1813.08,-77.6 1813.08,-77.6 1817.04,-77.6 1821,-81.56 1821,-85.51 1821,-85.51 1821,-93.43 1821,-93.43 1821,-97.39 1817.04,-101.35 1813.08,-101.35"/>
<text text-anchor="middle" x="1699.38" y="-84.05" font-family="Arial" font-size="14.00" fill="#c6c5fe">services/users/js/users.authenticate.js</text>
</g>
<!-- services/users/index.js&#45;&gt;services/users/js/users.authenticate.js -->
<g id="edge20" class="edge">
<title>services/users/index.js&#45;&gt;services/users/js/users.authenticate.js</title>
<path fill="none" stroke="#757575" d="M1152.3,-129.15C1190.56,-121.28 1242.47,-111.61 1288.75,-106.47 1381.14,-96.21 1485.88,-92 1566.32,-90.33"/>
<polygon fill="#757575" stroke="#757575" points="1566.06,-93.83 1575.99,-90.14 1565.93,-86.83 1566.06,-93.83"/>
</g>
<!-- services/users/index.js&#45;&gt;services/users/js/users.model.js -->
<g id="edge22" class="edge">
<title>services/users/index.js&#45;&gt;services/users/js/users.model.js</title>
<path fill="none" stroke="#757575" d="M1171.12,-144.83C1206.75,-146.26 1249.94,-147.77 1288.75,-148.47 1525.28,-152.77 1584.8,-156.64 1821,-143.47 1828.96,-143.03 1837.18,-142.48 1845.45,-141.87"/>
<polygon fill="#757575" stroke="#757575" points="1845.53,-145.37 1855.23,-141.11 1844.99,-138.39 1845.53,-145.37"/>
</g>
<!-- services/users/js/users.router.js -->
<g id="node23" class="node">
<title>services/users/js/users.router.js</title>
<path fill="none" stroke="#ff6c60" d="M1509.46,-139.35C1509.46,-139.35 1321.04,-139.35 1321.04,-139.35 1317.08,-139.35 1313.12,-135.39 1313.12,-131.43 1313.12,-131.43 1313.12,-123.51 1313.12,-123.51 1313.12,-119.56 1317.08,-115.6 1321.04,-115.6 1321.04,-115.6 1509.46,-115.6 1509.46,-115.6 1513.42,-115.6 1517.38,-119.56 1517.38,-123.51 1517.38,-123.51 1517.38,-131.43 1517.38,-131.43 1517.38,-135.39 1513.42,-139.35 1509.46,-139.35"/>
<text text-anchor="middle" x="1415.25" y="-122.05" font-family="Arial" font-size="14.00" fill="#ff6c60">services/users/js/users.router.js</text>
</g>
<!-- services/users/index.js&#45;&gt;services/users/js/users.router.js -->
<g id="edge23" class="edge">
<title>services/users/index.js&#45;&gt;services/users/js/users.router.js</title>
<path fill="none" stroke="#757575" d="M1171.11,-132.34C1209.9,-129.7 1258.04,-127.36 1301.23,-125.95"/>
<polygon fill="#757575" stroke="#757575" points="1301.28,-129.45 1311.16,-125.65 1301.06,-122.46 1301.28,-129.45"/>
</g>
<!-- services/geodata/server/importGeoJson.js&#45;&gt;services/geodata/server/geoJsonFeature.model.js -->
<g id="edge12" class="edge">
<title>services/geodata/server/importGeoJson.js&#45;&gt;services/geodata/server/geoJsonFeature.model.js</title>
<path fill="none" stroke="#757575" d="M897.68,-396.81C915.71,-398.53 934.31,-400.29 952.55,-402.03"/>
<polygon fill="#757575" stroke="#757575" points="952.05,-405.49 962.34,-402.96 952.71,-398.53 952.05,-405.49"/>
</g>
<!-- services/inviteonly/index.js -->
<g id="node12" class="node">
<title>services/inviteonly/index.js</title>
<path fill="none" stroke="#c6c5fe" d="M243.21,-159.35C243.21,-159.35 84.04,-159.35 84.04,-159.35 80.08,-159.35 76.12,-155.39 76.12,-151.43 76.12,-151.43 76.12,-143.51 76.12,-143.51 76.12,-139.56 80.08,-135.6 84.04,-135.6 84.04,-135.6 243.21,-135.6 243.21,-135.6 247.17,-135.6 251.12,-139.56 251.12,-143.51 251.12,-143.51 251.12,-151.43 251.12,-151.43 251.12,-155.39 247.17,-159.35 243.21,-159.35"/>
<text text-anchor="middle" x="163.62" y="-142.05" font-family="Arial" font-size="14.00" fill="#c6c5fe">services/inviteonly/index.js</text>
</g>
<!-- services/inviteonly/index.js&#45;&gt;authorizations.js -->
<g id="edge13" class="edge">
<title>services/inviteonly/index.js&#45;&gt;authorizations.js</title>
<path fill="none" stroke="#757575" d="M251.26,-153.27C301.74,-156.64 364.45,-160.84 411.22,-163.96"/>
<polygon fill="#757575" stroke="#757575" points="410.73,-167.44 420.94,-164.61 411.19,-160.46 410.73,-167.44"/>
</g>
<!-- services/inviteonly/invite.controller.js -->
<g id="node13" class="node">
<title>services/inviteonly/invite.controller.js</title>
<path fill="none" stroke="#c6c5fe" d="M588.08,-138.35C588.08,-138.35 371.17,-138.35 371.17,-138.35 367.21,-138.35 363.25,-134.39 363.25,-130.43 363.25,-130.43 363.25,-122.51 363.25,-122.51 363.25,-118.56 367.21,-114.6 371.17,-114.6 371.17,-114.6 588.08,-114.6 588.08,-114.6 592.04,-114.6 596,-118.56 596,-122.51 596,-122.51 596,-130.43 596,-130.43 596,-134.39 592.04,-138.35 588.08,-138.35"/>
<text text-anchor="middle" x="479.62" y="-121.05" font-family="Arial" font-size="14.00" fill="#c6c5fe">services/inviteonly/invite.controller.js</text>
</g>
<!-- services/inviteonly/index.js&#45;&gt;services/inviteonly/invite.controller.js -->
<g id="edge14" class="edge">
<title>services/inviteonly/index.js&#45;&gt;services/inviteonly/invite.controller.js</title>
<path fill="none" stroke="#757575" d="M251.26,-141.68C282.25,-139.61 317.84,-137.23 351.53,-134.97"/>
<polygon fill="#757575" stroke="#757575" points="351.62,-138.47 361.37,-134.32 351.16,-131.49 351.62,-138.47"/>
</g>
<!-- services/inviteonly/invite.model.js -->
<g id="node14" class="node">
<title>services/inviteonly/invite.model.js</title>
<path fill="none" stroke="#cfffac" d="M866.58,-111.35C866.58,-111.35 666.92,-111.35 666.92,-111.35 662.96,-111.35 659,-107.39 659,-103.43 659,-103.43 659,-95.51 659,-95.51 659,-91.56 662.96,-87.6 666.92,-87.6 666.92,-87.6 866.58,-87.6 866.58,-87.6 870.54,-87.6 874.5,-91.56 874.5,-95.51 874.5,-95.51 874.5,-103.43 874.5,-103.43 874.5,-107.39 870.54,-111.35 866.58,-111.35"/>
<text text-anchor="middle" x="766.75" y="-94.05" font-family="Arial" font-size="14.00" fill="#cfffac">services/inviteonly/invite.model.js</text>
</g>
<!-- services/inviteonly/invite.controller.js&#45;&gt;services/inviteonly/invite.model.js -->
<g id="edge15" class="edge">
<title>services/inviteonly/invite.controller.js&#45;&gt;services/inviteonly/invite.model.js</title>
<path fill="none" stroke="#757575" d="M596.19,-115.53C613.15,-113.92 630.65,-112.27 647.67,-110.65"/>
<polygon fill="#757575" stroke="#757575" points="647.64,-114.17 657.27,-109.75 646.98,-107.2 647.64,-114.17"/>
</g>
<!-- services/reactions/client/reactionbuttons.js -->
<g id="node15" class="node">
<title>services/reactions/client/reactionbuttons.js</title>
<path fill="none" stroke="#cfffac" d="M290.08,-359.35C290.08,-359.35 37.17,-359.35 37.17,-359.35 33.21,-359.35 29.25,-355.39 29.25,-351.43 29.25,-351.43 29.25,-343.51 29.25,-343.51 29.25,-339.56 33.21,-335.6 37.17,-335.6 37.17,-335.6 290.08,-335.6 290.08,-335.6 294.04,-335.6 298,-339.56 298,-343.51 298,-343.51 298,-351.43 298,-351.43 298,-355.39 294.04,-359.35 290.08,-359.35"/>
<text text-anchor="middle" x="163.62" y="-342.05" font-family="Arial" font-size="14.00" fill="#cfffac">services/reactions/client/reactionbuttons.js</text>
</g>
<!-- services/utils/livemodelelement/index.js -->
<g id="node18" class="node">
<title>services/utils/livemodelelement/index.js</title>
<path fill="none" stroke="#c6c5fe" d="M1533.83,-445.35C1533.83,-445.35 1296.67,-445.35 1296.67,-445.35 1292.71,-445.35 1288.75,-441.39 1288.75,-437.43 1288.75,-437.43 1288.75,-429.51 1288.75,-429.51 1288.75,-425.56 1292.71,-421.6 1296.67,-421.6 1296.67,-421.6 1533.83,-421.6 1533.83,-421.6 1537.79,-421.6 1541.75,-425.56 1541.75,-429.51 1541.75,-429.51 1541.75,-437.43 1541.75,-437.43 1541.75,-441.39 1537.79,-445.35 1533.83,-445.35"/>
<text text-anchor="middle" x="1415.25" y="-428.05" font-family="Arial" font-size="14.00" fill="#c6c5fe">services/utils/livemodelelement/index.js</text>
</g>
<!-- services/reactions/server/reaction.model.js&#45;&gt;services/utils/livemodelelement/index.js -->
<g id="edge18" class="edge">
<title>services/reactions/server/reaction.model.js&#45;&gt;services/utils/livemodelelement/index.js</title>
<path fill="none" stroke="#757575" d="M1231.5,-450.13C1246.53,-448.76 1261.84,-447.37 1276.89,-445.99"/>
<polygon fill="#757575" stroke="#757575" points="1277.19,-449.48 1286.83,-445.09 1276.56,-442.51 1277.19,-449.48"/>
</g>
<!-- services/reactions/server/reaction.router.js&#45;&gt;services/reactions/server/reaction.model.js -->
<g id="edge19" class="edge">
<title>services/reactions/server/reaction.router.js&#45;&gt;services/reactions/server/reaction.model.js</title>
<path fill="none" stroke="#757575" d="M868.34,-490.15C904.32,-485.73 945.09,-480.74 981.99,-476.22"/>
<polygon fill="#757575" stroke="#757575" points="982.31,-479.7 991.81,-475.01 981.46,-472.76 982.31,-479.7"/>
</g>
<!-- services/utils/livemodelelement/index.js&#45;&gt;services/utils/io.js -->
<g id="edge31" class="edge">
<title>services/utils/livemodelelement/index.js&#45;&gt;services/utils/io.js</title>
<path fill="none" stroke="#757575" d="M1467.34,-421.16C1514.73,-409.74 1585.37,-392.71 1636.05,-380.5"/>
<polygon fill="#757575" stroke="#757575" points="1636.82,-383.91 1645.72,-378.16 1635.18,-377.11 1636.82,-383.91"/>
</g>
<!-- services/users/client/authForm.js -->
<g id="node19" class="node">
<title>services/users/client/authForm.js</title>
<path fill="none" stroke="#cfffac" d="M262.33,-401.35C262.33,-401.35 64.92,-401.35 64.92,-401.35 60.96,-401.35 57,-397.39 57,-393.43 57,-393.43 57,-385.51 57,-385.51 57,-381.56 60.96,-377.6 64.92,-377.6 64.92,-377.6 262.33,-377.6 262.33,-377.6 266.29,-377.6 270.25,-381.56 270.25,-385.51 270.25,-385.51 270.25,-393.43 270.25,-393.43 270.25,-397.39 266.29,-401.35 262.33,-401.35"/>
<text text-anchor="middle" x="163.62" y="-384.05" font-family="Arial" font-size="14.00" fill="#cfffac">services/users/client/authForm.js</text>
</g>
<!-- services/users/client/userStatus.js -->
<g id="node20" class="node">
<title>services/users/client/userStatus.js</title>
<path fill="none" stroke="#cfffac" d="M265.33,-443.35C265.33,-443.35 61.92,-443.35 61.92,-443.35 57.96,-443.35 54,-439.39 54,-435.43 54,-435.43 54,-427.51 54,-427.51 54,-423.56 57.96,-419.6 61.92,-419.6 61.92,-419.6 265.33,-419.6 265.33,-419.6 269.29,-419.6 273.25,-423.56 273.25,-427.51 273.25,-427.51 273.25,-435.43 273.25,-435.43 273.25,-439.39 269.29,-443.35 265.33,-443.35"/>
<text text-anchor="middle" x="163.62" y="-426.05" font-family="Arial" font-size="14.00" fill="#cfffac">services/users/client/userStatus.js</text>
</g>
<!-- services/users/js/users.authenticate.js&#45;&gt;services/users/js/users.model.js -->
<g id="edge24" class="edge">
<title>services/users/js/users.authenticate.js&#45;&gt;services/users/js/users.model.js</title>
<path fill="none" stroke="#757575" d="M1778.51,-101.83C1807.46,-106.41 1840.51,-111.63 1870.37,-116.36"/>
<polygon fill="#757575" stroke="#757575" points="1869.73,-119.8 1880.15,-117.9 1870.82,-112.89 1869.73,-119.8"/>
</g>
<!-- services/utils/must.js -->
<g id="node24" class="node">
<title>services/utils/must.js</title>
<path fill="none" stroke="#cfffac" d="M2022.96,-100.35C2022.96,-100.35 1898.29,-100.35 1898.29,-100.35 1894.33,-100.35 1890.38,-96.39 1890.38,-92.43 1890.38,-92.43 1890.38,-84.51 1890.38,-84.51 1890.38,-80.56 1894.33,-76.6 1898.29,-76.6 1898.29,-76.6 2022.96,-76.6 2022.96,-76.6 2026.92,-76.6 2030.88,-80.56 2030.88,-84.51 2030.88,-84.51 2030.88,-92.43 2030.88,-92.43 2030.88,-96.39 2026.92,-100.35 2022.96,-100.35"/>
<text text-anchor="middle" x="1960.62" y="-83.05" font-family="Arial" font-size="14.00" fill="#cfffac">services/utils/must.js</text>
</g>
<!-- services/users/js/users.authenticate.js&#45;&gt;services/utils/must.js -->
<g id="edge25" class="edge">
<title>services/users/js/users.authenticate.js&#45;&gt;services/utils/must.js</title>
<path fill="none" stroke="#757575" d="M1821.27,-89.01C1840.75,-88.93 1860.49,-88.86 1878.72,-88.78"/>
<polygon fill="#757575" stroke="#757575" points="1878.66,-92.29 1888.65,-88.75 1878.64,-85.29 1878.66,-92.29"/>
</g>
<!-- services/users/js/users.router.js&#45;&gt;services/users/index.js -->
<g id="edge28" class="edge">
<title>services/users/js/users.router.js&#45;&gt;services/users/index.js</title>
<path fill="none" stroke="#757575" d="M1312.68,-138.28C1270.76,-140.75 1222.68,-142.78 1182.5,-143.75"/>
<polygon fill="#757575" stroke="#757575" points="1182.55,-140.25 1172.63,-143.97 1182.7,-147.25 1182.55,-140.25"/>
</g>
<!-- services/users/js/users.router.js&#45;&gt;services/users/js/users.authenticate.js -->
<g id="edge29" class="edge">
<title>services/users/js/users.router.js&#45;&gt;services/users/js/users.authenticate.js</title>
<path fill="none" stroke="#757575" d="M1507.85,-115.14C1535.83,-111.37 1566.79,-107.2 1595.47,-103.33"/>
<polygon fill="#757575" stroke="#757575" points="1595.81,-106.82 1605.25,-102.02 1594.88,-99.88 1595.81,-106.82"/>
</g>
<!-- services/users/js/users.router.js&#45;&gt;services/users/js/users.model.js -->
<g id="edge30" class="edge">
<title>services/users/js/users.router.js&#45;&gt;services/users/js/users.model.js</title>
<path fill="none" stroke="#757575" d="M1517.82,-128.03C1610.89,-128.55 1748.54,-129.31 1845.4,-129.84"/>
<polygon fill="#757575" stroke="#757575" points="1845.18,-133.34 1855.2,-129.9 1845.22,-126.34 1845.18,-133.34"/>
</g>
<!-- services/users/js/users.db.js -->
<g id="node25" class="node">
<title>services/users/js/users.db.js</title>
<path fill="none" stroke="#cfffac" d="M248.08,-485.35C248.08,-485.35 79.17,-485.35 79.17,-485.35 75.21,-485.35 71.25,-481.39 71.25,-477.43 71.25,-477.43 71.25,-469.51 71.25,-469.51 71.25,-465.56 75.21,-461.6 79.17,-461.6 79.17,-461.6 248.08,-461.6 248.08,-461.6 252.04,-461.6 256,-465.56 256,-469.51 256,-469.51 256,-477.43 256,-477.43 256,-481.39 252.04,-485.35 248.08,-485.35"/>
<text text-anchor="middle" x="163.62" y="-468.05" font-family="Arial" font-size="14.00" fill="#cfffac">services/users/js/users.db.js</text>
</g>
<!-- services/utils/livemodelelement/livemodelelement.js -->
<g id="node26" class="node">
<title>services/utils/livemodelelement/livemodelelement.js</title>
<path fill="none" stroke="#cfffac" d="M319.33,-527.35C319.33,-527.35 7.92,-527.35 7.92,-527.35 3.96,-527.35 0,-523.39 0,-519.43 0,-519.43 0,-511.51 0,-511.51 0,-507.56 3.96,-503.6 7.92,-503.6 7.92,-503.6 319.33,-503.6 319.33,-503.6 323.29,-503.6 327.25,-507.56 327.25,-511.51 327.25,-511.51 327.25,-519.43 327.25,-519.43 327.25,-523.39 323.29,-527.35 319.33,-527.35"/>
<text text-anchor="middle" x="163.62" y="-510.05" font-family="Arial" font-size="14.00" fill="#cfffac">services/utils/livemodelelement/livemodelelement.js</text>
</g>
<!-- services/utils/livemodelelement/testdoc.model.js -->
<g id="node27" class="node">
<title>services/utils/livemodelelement/testdoc.model.js</title>
<path fill="none" stroke="#cfffac" d="M308.46,-569.35C308.46,-569.35 18.79,-569.35 18.79,-569.35 14.83,-569.35 10.88,-565.39 10.88,-561.43 10.88,-561.43 10.88,-553.51 10.88,-553.51 10.88,-549.56 14.83,-545.6 18.79,-545.6 18.79,-545.6 308.46,-545.6 308.46,-545.6 312.42,-545.6 316.38,-549.56 316.38,-553.51 316.38,-553.51 316.38,-561.43 316.38,-561.43 316.38,-565.39 312.42,-569.35 308.46,-569.35"/>
<text text-anchor="middle" x="163.62" y="-552.05" font-family="Arial" font-size="14.00" fill="#cfffac">services/utils/livemodelelement/testdoc.model.js</text>
</g>
<!-- services/utils/logroutes.js -->
<g id="node28" class="node">
<title>services/utils/logroutes.js</title>
<path fill="none" stroke="#cfffac" d="M238.71,-611.35C238.71,-611.35 88.54,-611.35 88.54,-611.35 84.58,-611.35 80.62,-607.39 80.62,-603.43 80.62,-603.43 80.62,-595.51 80.62,-595.51 80.62,-591.56 84.58,-587.6 88.54,-587.6 88.54,-587.6 238.71,-587.6 238.71,-587.6 242.67,-587.6 246.62,-591.56 246.62,-595.51 246.62,-595.51 246.62,-603.43 246.62,-603.43 246.62,-607.39 242.67,-611.35 238.71,-611.35"/>
<text text-anchor="middle" x="163.62" y="-594.05" font-family="Arial" font-size="14.00" fill="#cfffac">services/utils/logroutes.js</text>
</g>
<!-- services/utils/madge.js -->
<g id="node29" class="node">
<title>services/utils/madge.js</title>
<path fill="none" stroke="#cfffac" d="M231.96,-653.35C231.96,-653.35 95.29,-653.35 95.29,-653.35 91.33,-653.35 87.38,-649.39 87.38,-645.43 87.38,-645.43 87.38,-637.51 87.38,-637.51 87.38,-633.56 91.33,-629.6 95.29,-629.6 95.29,-629.6 231.96,-629.6 231.96,-629.6 235.92,-629.6 239.88,-633.56 239.88,-637.51 239.88,-637.51 239.88,-645.43 239.88,-645.43 239.88,-649.39 235.92,-653.35 231.96,-653.35"/>
<text text-anchor="middle" x="163.62" y="-636.05" font-family="Arial" font-size="14.00" fill="#cfffac">services/utils/madge.js</text>
</g>
<!-- services/utils/reactive.js -->
<g id="node30" class="node">
<title>services/utils/reactive.js</title>
<path fill="none" stroke="#cfffac" d="M234.58,-695.35C234.58,-695.35 92.67,-695.35 92.67,-695.35 88.71,-695.35 84.75,-691.39 84.75,-687.43 84.75,-687.43 84.75,-679.51 84.75,-679.51 84.75,-675.56 88.71,-671.6 92.67,-671.6 92.67,-671.6 234.58,-671.6 234.58,-671.6 238.54,-671.6 242.5,-675.56 242.5,-679.51 242.5,-679.51 242.5,-687.43 242.5,-687.43 242.5,-691.39 238.54,-695.35 234.58,-695.35"/>
<text text-anchor="middle" x="163.62" y="-678.05" font-family="Arial" font-size="14.00" fill="#cfffac">services/utils/reactive.js</text>
</g>
<!-- services/utils/reactiveattributeselement.js -->
<g id="node31" class="node">
<title>services/utils/reactiveattributeselement.js</title>
<path fill="none" stroke="#cfffac" d="M286.71,-737.35C286.71,-737.35 40.54,-737.35 40.54,-737.35 36.58,-737.35 32.62,-733.39 32.62,-729.43 32.62,-729.43 32.62,-721.51 32.62,-721.51 32.62,-717.56 36.58,-713.6 40.54,-713.6 40.54,-713.6 286.71,-713.6 286.71,-713.6 290.67,-713.6 294.62,-717.56 294.62,-721.51 294.62,-721.51 294.62,-729.43 294.62,-729.43 294.62,-733.39 290.67,-737.35 286.71,-737.35"/>
<text text-anchor="middle" x="163.62" y="-720.05" font-family="Arial" font-size="14.00" fill="#cfffac">services/utils/reactiveattributeselement.js</text>
</g>
<!-- services/utils/reactivestateelement.js -->
<g id="node32" class="node">
<title>services/utils/reactivestateelement.js</title>
<path fill="none" stroke="#cfffac" d="M273.58,-779.35C273.58,-779.35 53.67,-779.35 53.67,-779.35 49.71,-779.35 45.75,-775.39 45.75,-771.43 45.75,-771.43 45.75,-763.51 45.75,-763.51 45.75,-759.56 49.71,-755.6 53.67,-755.6 53.67,-755.6 273.58,-755.6 273.58,-755.6 277.54,-755.6 281.5,-759.56 281.5,-763.51 281.5,-763.51 281.5,-771.43 281.5,-771.43 281.5,-775.39 277.54,-779.35 273.58,-779.35"/>
<text text-anchor="middle" x="163.62" y="-762.05" font-family="Arial" font-size="14.00" fill="#cfffac">services/utils/reactivestateelement.js</text>
</g>
<!-- services/vertex/client/geoscaleinputcomponent.js -->
<g id="node33" class="node">
<title>services/vertex/client/geoscaleinputcomponent.js</title>
<path fill="none" stroke="#cfffac" d="M310.33,-821.35C310.33,-821.35 16.92,-821.35 16.92,-821.35 12.96,-821.35 9,-817.39 9,-813.43 9,-813.43 9,-805.51 9,-805.51 9,-801.56 12.96,-797.6 16.92,-797.6 16.92,-797.6 310.33,-797.6 310.33,-797.6 314.29,-797.6 318.25,-801.56 318.25,-805.51 318.25,-805.51 318.25,-813.43 318.25,-813.43 318.25,-817.39 314.29,-821.35 310.33,-821.35"/>
<text text-anchor="middle" x="163.62" y="-804.05" font-family="Arial" font-size="14.00" fill="#cfffac">services/vertex/client/geoscaleinputcomponent.js</text>
</g>
<!-- services/vertex/client/ordinal&#45;slider.js -->
<g id="node34" class="node">
<title>services/vertex/client/ordinal&#45;slider.js</title>
<path fill="none" stroke="#cfffac" d="M273.21,-863.35C273.21,-863.35 54.04,-863.35 54.04,-863.35 50.08,-863.35 46.12,-859.39 46.12,-855.43 46.12,-855.43 46.12,-847.51 46.12,-847.51 46.12,-843.56 50.08,-839.6 54.04,-839.6 54.04,-839.6 273.21,-839.6 273.21,-839.6 277.17,-839.6 281.12,-843.56 281.12,-847.51 281.12,-847.51 281.12,-855.43 281.12,-855.43 281.12,-859.39 277.17,-863.35 273.21,-863.35"/>
<text text-anchor="middle" x="163.62" y="-846.05" font-family="Arial" font-size="14.00" fill="#cfffac">services/vertex/client/ordinal&#45;slider.js</text>
</g>
<!-- services/vertex/client/sliding&#45;page.js -->
<g id="node35" class="node">
<title>services/vertex/client/sliding&#45;page.js</title>
<path fill="none" stroke="#cfffac" d="M271.33,-905.35C271.33,-905.35 55.92,-905.35 55.92,-905.35 51.96,-905.35 48,-901.39 48,-897.43 48,-897.43 48,-889.51 48,-889.51 48,-885.56 51.96,-881.6 55.92,-881.6 55.92,-881.6 271.33,-881.6 271.33,-881.6 275.29,-881.6 279.25,-885.56 279.25,-889.51 279.25,-889.51 279.25,-897.43 279.25,-897.43 279.25,-901.39 275.29,-905.35 271.33,-905.35"/>
<text text-anchor="middle" x="163.62" y="-888.05" font-family="Arial" font-size="14.00" fill="#cfffac">services/vertex/client/sliding&#45;page.js</text>
</g>
<!-- services/vertex/client/socketmanager.js -->
<g id="node36" class="node">
<title>services/vertex/client/socketmanager.js</title>
<path fill="none" stroke="#cfffac" d="M281.08,-947.35C281.08,-947.35 46.17,-947.35 46.17,-947.35 42.21,-947.35 38.25,-943.39 38.25,-939.43 38.25,-939.43 38.25,-931.51 38.25,-931.51 38.25,-927.56 42.21,-923.6 46.17,-923.6 46.17,-923.6 281.08,-923.6 281.08,-923.6 285.04,-923.6 289,-927.56 289,-931.51 289,-931.51 289,-939.43 289,-939.43 289,-943.39 285.04,-947.35 281.08,-947.35"/>
<text text-anchor="middle" x="163.62" y="-930.05" font-family="Arial" font-size="14.00" fill="#cfffac">services/vertex/client/socketmanager.js</text>
</g>
<!-- services/vertex/client/vex&#45;moderation&#45;actions.js -->
<g id="node37" class="node">
<title>services/vertex/client/vex&#45;moderation&#45;actions.js</title>
<path fill="none" stroke="#cfffac" d="M305.46,-989.35C305.46,-989.35 21.79,-989.35 21.79,-989.35 17.83,-989.35 13.88,-985.39 13.88,-981.43 13.88,-981.43 13.88,-973.51 13.88,-973.51 13.88,-969.56 17.83,-965.6 21.79,-965.6 21.79,-965.6 305.46,-965.6 305.46,-965.6 309.42,-965.6 313.38,-969.56 313.38,-973.51 313.38,-973.51 313.38,-981.43 313.38,-981.43 313.38,-985.39 309.42,-989.35 305.46,-989.35"/>
<text text-anchor="middle" x="163.62" y="-972.05" font-family="Arial" font-size="14.00" fill="#cfffac">services/vertex/client/vex&#45;moderation&#45;actions.js</text>
</g>
<!-- services/vertex/client/vex&#45;sliding&#45;threads.js -->
<g id="node38" class="node">
<title>services/vertex/client/vex&#45;sliding&#45;threads.js</title>
<path fill="none" stroke="#cfffac" d="M291.58,-1031.35C291.58,-1031.35 35.67,-1031.35 35.67,-1031.35 31.71,-1031.35 27.75,-1027.39 27.75,-1023.43 27.75,-1023.43 27.75,-1015.51 27.75,-1015.51 27.75,-1011.56 31.71,-1007.6 35.67,-1007.6 35.67,-1007.6 291.58,-1007.6 291.58,-1007.6 295.54,-1007.6 299.5,-1011.56 299.5,-1015.51 299.5,-1015.51 299.5,-1023.43 299.5,-1023.43 299.5,-1027.39 295.54,-1031.35 291.58,-1031.35"/>
<text text-anchor="middle" x="163.62" y="-1014.05" font-family="Arial" font-size="14.00" fill="#cfffac">services/vertex/client/vex&#45;sliding&#45;threads.js</text>
</g>
<!-- services/vertex/client/vexbreadcrumbs.js -->
<g id="node39" class="node">
<title>services/vertex/client/vexbreadcrumbs.js</title>
<path fill="none" stroke="#cfffac" d="M285.21,-1073.35C285.21,-1073.35 42.04,-1073.35 42.04,-1073.35 38.08,-1073.35 34.12,-1069.39 34.12,-1065.43 34.12,-1065.43 34.12,-1057.51 34.12,-1057.51 34.12,-1053.56 38.08,-1049.6 42.04,-1049.6 42.04,-1049.6 285.21,-1049.6 285.21,-1049.6 289.17,-1049.6 293.12,-1053.56 293.12,-1057.51 293.12,-1057.51 293.12,-1065.43 293.12,-1065.43 293.12,-1069.39 289.17,-1073.35 285.21,-1073.35"/>
<text text-anchor="middle" x="163.62" y="-1056.05" font-family="Arial" font-size="14.00" fill="#cfffac">services/vertex/client/vexbreadcrumbs.js</text>
</g>
<!-- services/vertex/client/vexcomponent.js -->
<g id="node40" class="node">
<title>services/vertex/client/vexcomponent.js</title>
<path fill="none" stroke="#cfffac" d="M279.21,-1115.35C279.21,-1115.35 48.04,-1115.35 48.04,-1115.35 44.08,-1115.35 40.12,-1111.39 40.12,-1107.43 40.12,-1107.43 40.12,-1099.51 40.12,-1099.51 40.12,-1095.56 44.08,-1091.6 48.04,-1091.6 48.04,-1091.6 279.21,-1091.6 279.21,-1091.6 283.17,-1091.6 287.12,-1095.56 287.12,-1099.51 287.12,-1099.51 287.12,-1107.43 287.12,-1107.43 287.12,-1111.39 283.17,-1115.35 279.21,-1115.35"/>
<text text-anchor="middle" x="163.62" y="-1098.05" font-family="Arial" font-size="14.00" fill="#cfffac">services/vertex/client/vexcomponent.js</text>
</g>
<!-- services/vertex/client/vexinputcomponent.js -->
<g id="node41" class="node">
<title>services/vertex/client/vexinputcomponent.js</title>
<path fill="none" stroke="#cfffac" d="M293.83,-1157.35C293.83,-1157.35 33.42,-1157.35 33.42,-1157.35 29.46,-1157.35 25.5,-1153.39 25.5,-1149.43 25.5,-1149.43 25.5,-1141.51 25.5,-1141.51 25.5,-1137.56 29.46,-1133.6 33.42,-1133.6 33.42,-1133.6 293.83,-1133.6 293.83,-1133.6 297.79,-1133.6 301.75,-1137.56 301.75,-1141.51 301.75,-1141.51 301.75,-1149.43 301.75,-1149.43 301.75,-1153.39 297.79,-1157.35 293.83,-1157.35"/>
<text text-anchor="middle" x="163.62" y="-1140.05" font-family="Arial" font-size="14.00" fill="#cfffac">services/vertex/client/vexinputcomponent.js</text>
</g>
<!-- services/vertex/client/vexlist.js -->
<g id="node42" class="node">
<title>services/vertex/client/vexlist.js</title>
<path fill="none" stroke="#cfffac" d="M253.71,-1199.35C253.71,-1199.35 73.54,-1199.35 73.54,-1199.35 69.58,-1199.35 65.62,-1195.39 65.62,-1191.43 65.62,-1191.43 65.62,-1183.51 65.62,-1183.51 65.62,-1179.56 69.58,-1175.6 73.54,-1175.6 73.54,-1175.6 253.71,-1175.6 253.71,-1175.6 257.67,-1175.6 261.62,-1179.56 261.62,-1183.51 261.62,-1183.51 261.62,-1191.43 261.62,-1191.43 261.62,-1195.39 257.67,-1199.35 253.71,-1199.35"/>
<text text-anchor="middle" x="163.62" y="-1182.05" font-family="Arial" font-size="14.00" fill="#cfffac">services/vertex/client/vexlist.js</text>
</g>
<!-- services/vertex/client/vexlistcomponent.js -->
<g id="node43" class="node">
<title>services/vertex/client/vexlistcomponent.js</title>
<path fill="none" stroke="#cfffac" d="M287.46,-1241.35C287.46,-1241.35 39.79,-1241.35 39.79,-1241.35 35.83,-1241.35 31.88,-1237.39 31.88,-1233.43 31.88,-1233.43 31.88,-1225.51 31.88,-1225.51 31.88,-1221.56 35.83,-1217.6 39.79,-1217.6 39.79,-1217.6 287.46,-1217.6 287.46,-1217.6 291.42,-1217.6 295.38,-1221.56 295.38,-1225.51 295.38,-1225.51 295.38,-1233.43 295.38,-1233.43 295.38,-1237.39 291.42,-1241.35 287.46,-1241.35"/>
<text text-anchor="middle" x="163.62" y="-1224.05" font-family="Arial" font-size="14.00" fill="#cfffac">services/vertex/client/vexlistcomponent.js</text>
</g>
<!-- services/vertex/client/vexreactions.js -->
<g id="node44" class="node">
<title>services/vertex/client/vexreactions.js</title>
<path fill="none" stroke="#cfffac" d="M272.83,-1283.35C272.83,-1283.35 54.42,-1283.35 54.42,-1283.35 50.46,-1283.35 46.5,-1279.39 46.5,-1275.43 46.5,-1275.43 46.5,-1267.51 46.5,-1267.51 46.5,-1263.56 50.46,-1259.6 54.42,-1259.6 54.42,-1259.6 272.83,-1259.6 272.83,-1259.6 276.79,-1259.6 280.75,-1263.56 280.75,-1267.51 280.75,-1267.51 280.75,-1275.43 280.75,-1275.43 280.75,-1279.39 276.79,-1283.35 272.83,-1283.35"/>
<text text-anchor="middle" x="163.62" y="-1266.05" font-family="Arial" font-size="14.00" fill="#cfffac">services/vertex/client/vexreactions.js</text>
</g>
<!-- services/vertex/client/vexsortcontrols.js -->
<g id="node45" class="node">
<title>services/vertex/client/vexsortcontrols.js</title>
<path fill="none" stroke="#cfffac" d="M280.33,-1325.35C280.33,-1325.35 46.92,-1325.35 46.92,-1325.35 42.96,-1325.35 39,-1321.39 39,-1317.43 39,-1317.43 39,-1309.51 39,-1309.51 39,-1305.56 42.96,-1301.6 46.92,-1301.6 46.92,-1301.6 280.33,-1301.6 280.33,-1301.6 284.29,-1301.6 288.25,-1305.56 288.25,-1309.51 288.25,-1309.51 288.25,-1317.43 288.25,-1317.43 288.25,-1321.39 284.29,-1325.35 280.33,-1325.35"/>
<text text-anchor="middle" x="163.62" y="-1308.05" font-family="Arial" font-size="14.00" fill="#cfffac">services/vertex/client/vexsortcontrols.js</text>
</g>
<!-- services/vertex/client/vexthread.js -->
<g id="node46" class="node">
<title>services/vertex/client/vexthread.js</title>
<path fill="none" stroke="#cfffac" d="M264.58,-1367.35C264.58,-1367.35 62.67,-1367.35 62.67,-1367.35 58.71,-1367.35 54.75,-1363.39 54.75,-1359.43 54.75,-1359.43 54.75,-1351.51 54.75,-1351.51 54.75,-1347.56 58.71,-1343.6 62.67,-1343.6 62.67,-1343.6 264.58,-1343.6 264.58,-1343.6 268.54,-1343.6 272.5,-1347.56 272.5,-1351.51 272.5,-1351.51 272.5,-1359.43 272.5,-1359.43 272.5,-1363.39 268.54,-1367.35 264.58,-1367.35"/>
<text text-anchor="middle" x="163.62" y="-1350.05" font-family="Arial" font-size="14.00" fill="#cfffac">services/vertex/client/vexthread.js</text>
</g>
</g>
</svg>
